<?xml version="1.0" encoding="utf-8"?>
<!-- Generator: Adobe Illustrator 16.0.0, SVG Export Plug-In . SVG Version: 6.00 Build 0)  -->
<!DOCTYPE svg PUBLIC "-//W3C//DTD SVG 1.1//EN" "http://www.w3.org/Graphics/SVG/1.1/DTD/svg11.dtd">
<svg version="1.1" id="Layer_1" xmlns="http://www.w3.org/2000/svg" xmlns:xlink="http://www.w3.org/1999/xlink" x="0px" y="0px"
	 width="10px" height="15px" viewBox="43.396 43.958 10 15" enable-background="new 43.396 43.958 10 15" xml:space="preserve">
<path fill="#993333" d="M48.396,43.958c-2.757,0-5,2.244-5,5.001c0,4.411,4.571,9.67,4.766,9.893
	c0.059,0.068,0.144,0.107,0.234,0.107c0.097-0.006,0.175-0.039,0.234-0.107c0.195-0.227,4.766-5.576,4.766-9.893
	C53.396,46.203,51.154,43.958,48.396,43.958z M48.396,47.396c1.036,0,1.875,0.841,1.875,1.876c0,1.034-0.84,1.875-1.875,1.875
	c-1.035,0-1.875-0.841-1.875-1.875C46.521,48.237,47.361,47.396,48.396,47.396z"/>
</svg>
