<?xml version="1.0" standalone="no"?>
<!DOCTYPE svg PUBLIC "-//W3C//DTD SVG 1.1//EN" "http://www.w3.org/Graphics/SVG/1.1/DTD/svg11.dtd" >
<svg xmlns="http://www.w3.org/2000/svg">
<metadata></metadata>
<defs>
<font id="kelson_sans_rubold" horiz-adv-x="491" >
<font-face units-per-em="1000" ascent="750" descent="-250" />
<missing-glyph horiz-adv-x="220" />
<glyph horiz-adv-x="0" />
<glyph unicode=" "  horiz-adv-x="220" />
<glyph unicode="&#x09;" horiz-adv-x="220" />
<glyph unicode="&#xa0;" horiz-adv-x="220" />
<glyph unicode="!" horiz-adv-x="235" d="M178 172h-111v506h120zM168 114q21 -19 21 -51q0 -30 -21 -49q-19 -17 -47 -17q-27 0 -47 16q-21 19 -21 50q0 32 21 51q19 16 47 16t47 -16z" />
<glyph unicode="&#x22;" horiz-adv-x="308" d="M34 477l-3 200h102l-4 -200h-95zM188 477l-3 200h102l-4 -200h-95z" />
<glyph unicode="#" horiz-adv-x="616" d="M94 497h88l36 174h100l-36 -174h127l36 174h100l-36 -174h86l-20 -94h-87l-25 -127h86l-20 -94h-85l-37 -182h-101l37 182h-127l-37 -182h-100l37 182h-88l20 94h88l26 127h-88zM236 276h127l26 127h-128z" />
<glyph unicode="$" horiz-adv-x="518" d="M214 -4q-175 18 -175 188h122q2 -41 24 -60q25 -20 79 -20q56 0 81 24q25 26 25 83q0 52 -56 71q-22 8 -54 12l-29 3l-28 4q-69 10 -107 45q-50 47 -50 142q0 167 168 190v95h108v-96q142 -23 155 -176h-122q-3 40 -26 58q-21 16 -67 16q-51 0 -72 -19q-22 -19 -22 -67 q0 -55 47 -73q21 -7 53 -11l17 -3l17 -2q23 -2 37 -5q71 -11 105 -43q48 -43 48 -136q0 -103 -41 -154q-41 -54 -129 -66v-92h-108v92z" />
<glyph unicode="%" horiz-adv-x="727" d="M434 206q0 130 128 130q131 0 131 -130v-76q0 -130 -131 -130q-128 0 -128 130v76zM601 194q0 48 -39 48q-38 0 -38 -48v-51q0 -49 38 -49q39 0 39 49v51zM26 554q0 130 129 130q130 0 130 -130v-76q0 -130 -130 -130q-129 0 -129 130v76zM194 541q0 49 -39 49 q-38 0 -38 -49v-50q0 -49 38 -49q39 0 39 49v50zM517 678l-198 -690l-117 12l196 690z" />
<glyph unicode="&#x26;" horiz-adv-x="577" d="M552 -12q-107 3 -133 83q-19 -40 -66 -64q-43 -21 -88 -21q-219 0 -219 210q0 52 31 99q31 46 83 68q-83 35 -83 139q0 79 59 134q58 56 144 56q94 0 146 -50q50 -47 47 -133h-117q3 70 -76 70q-34 0 -56 -24q-23 -23 -23 -55t23 -57q22 -26 56 -26h267v-107h-69v-121 q0 -83 73 -85zM359 310h-80q-48 0 -79 -32q-30 -30 -30 -77q-1 -48 27 -76q28 -26 70 -26q37 0 63 23q29 26 29 69v119z" />
<glyph unicode="'" horiz-adv-x="161" d="M34 477l-3 200h102l-4 -200h-95z" />
<glyph unicode="(" horiz-adv-x="266" d="M172 18q0 -81 74 -78v-122q-99 -3 -149 54q-46 51 -46 145v478q0 95 46 146q50 56 149 53v-122q-74 4 -74 -78v-476z" />
<glyph unicode=")" horiz-adv-x="274" d="M101 494q0 82 -74 78v122q100 3 150 -53q46 -51 46 -146v-478q0 -94 -46 -145q-50 -57 -150 -54v122q74 -3 74 78v476z" />
<glyph unicode="*" horiz-adv-x="308" d="M215 429q-30 29 -45 73h-11q-6 1 -11 0q-13 -42 -45 -73l-77 76q34 34 73 45q1 12 1 21q-43 15 -74 46l77 77q32 -31 45 -74h21q12 40 46 73l76 -76q-31 -32 -73 -45q-1 -3 -1 -21q44 -13 74 -46z" />
<glyph unicode="+" horiz-adv-x="424" d="M391 278h-127v-130h-108v130h-127v100h127v132h108v-132h127v-100z" />
<glyph unicode="," horiz-adv-x="183" d="M0 -84q33 25 39 58q1 21 1 33v20v22h102q11 -148 -106 -193z" />
<glyph unicode="-" horiz-adv-x="464" d="M415 248h-361v101h361v-101z" />
<glyph unicode="." horiz-adv-x="212" d="M159 114q21 -19 21 -51q0 -30 -21 -49q-19 -17 -46 -17q-28 0 -48 16q-21 19 -21 50q0 32 21 51q19 16 48 16q27 0 46 -16z" />
<glyph unicode="/" horiz-adv-x="379" d="M341 678l-194 -679h-112l194 679h112z" />
<glyph unicode="0" d="M46 474q0 203 201 203q104 0 153 -49t49 -154v-273q0 -105 -49 -154t-153 -49t-152 49q-49 49 -49 154v273zM327 468q0 51 -15 75q-20 26 -65 26t-63 -26q-17 -22 -17 -75v-261q0 -53 17 -75q18 -26 63 -26t65 26q15 24 15 75v261z" />
<glyph unicode="1" horiz-adv-x="372" d="M21 99h110v476h-86v104h208v-580h105v-99h-337v99z" />
<glyph unicode="2" horiz-adv-x="470" d="M43 139q0 98 42 154q29 40 93 71l25 12l24 11q26 13 43 26q42 33 42 89q0 73 -70 73q-40 0 -56 -18q-18 -20 -18 -77h-121q0 103 45 152q48 50 151 50q96 0 146 -51q45 -48 45 -128q0 -97 -42 -149q-28 -35 -93 -63l-25 -10l-24 -10q-26 -11 -43 -26q-42 -36 -42 -103 v-22h259v-120h-381v139z" />
<glyph unicode="3" horiz-adv-x="471" d="M150 214q0 -102 75 -102q84 0 84 94q0 60 -13 87q-21 41 -76 41h-65v40l104 196h-215v109h386v-12l-127 -252q74 -9 104 -73q25 -48 25 -135q0 -100 -52 -154q-54 -57 -154 -57q-194 0 -194 218h118z" />
<glyph unicode="4" horiz-adv-x="498" d="M12 136l-14 85l268 458h117v-433h65v-110h-65v-136h-117v136h-254zM266 347l13 149l-135 -250h122v101z" />
<glyph unicode="5" horiz-adv-x="475" d="M156 228q1 -67 18 -93q19 -29 64 -29t65 26q16 24 16 75v42q0 50 -15 73q-19 26 -64 26h-200v329h369v-115h-254v-104h85q103 0 152 -49q48 -48 48 -154v-54q0 -105 -49 -154t-153 -49t-152 51q-50 54 -51 179h121z" />
<glyph unicode="6" horiz-adv-x="494" d="M400 665q-57 -31 -107 -84q-40 -43 -66 -87q4 1 22 1h21q178 0 178 -187v-114q0 -110 -46 -155q-46 -47 -154 -47q-107 0 -154 47q-46 45 -46 155v114q0 114 59 216q53 93 144 154h146zM326 308q0 45 -19 62q-17 15 -59 15q-41 0 -59 -15q-18 -17 -18 -62v-114 q0 -51 18 -69t59 -18q42 0 59 18q19 18 19 69v114z" />
<glyph unicode="7" horiz-adv-x="411" d="M393 635l-216 -635h-130l193 562h-229v115h382v-42z" />
<glyph unicode="8" horiz-adv-x="482" d="M35 241q0 96 71 138q-31 21 -48 60q-13 34 -13 68q0 77 45 123q51 51 148 51q96 0 147 -51q45 -46 45 -123q0 -34 -16 -71q-16 -39 -42 -57q66 -53 66 -138v-47q0 -105 -49 -154q-48 -49 -152 -49t-153 49t-49 154v47zM317 235q0 50 -16 72q-19 25 -64 25q-47 0 -64 -25 q-16 -19 -16 -72v-35q0 -53 16 -75q19 -26 64 -26t64 26q16 24 16 75v35zM244 428q30 1 48 24q17 22 17 52q0 32 -19 50q-19 20 -52 20q-34 0 -53 -20q-19 -18 -19 -50q0 -31 19 -53q20 -23 53 -23h6z" />
<glyph unicode="9" horiz-adv-x="494" d="M96 12q57 31 108 85q40 42 65 87q-3 -1 -22 -1h-21q-178 0 -178 187v114q0 109 46 155q47 47 154 47q108 0 154 -47q46 -46 46 -155v-114q0 -115 -59 -216q-53 -93 -143 -154h-147zM171 370q0 -44 18 -62q18 -16 59 -16q42 0 59 16q19 18 19 62v114q0 50 -19 69 q-17 17 -59 17q-41 0 -59 -17q-18 -19 -18 -69v-114z" />
<glyph unicode=":" horiz-adv-x="219" d="M159 114q21 -19 21 -51q0 -30 -21 -49q-19 -17 -46 -17q-28 0 -48 16q-21 19 -21 50q0 32 21 51q19 16 48 16q27 0 46 -16zM159 414q21 -18 21 -50q0 -30 -21 -49q-19 -17 -46 -17q-28 0 -48 16q-21 19 -21 50q0 32 21 50q19 17 48 17q27 0 46 -17z" />
<glyph unicode=";" horiz-adv-x="230" d="M165 414q21 -18 21 -50q0 -30 -21 -49q-20 -17 -47 -17t-48 16q-21 19 -21 50q0 32 21 50q20 17 48 17q27 0 47 -17zM12 -83q34 25 41 57q2 13 2 34v41h114q11 -147 -107 -193z" />
<glyph unicode="&#x3c;" horiz-adv-x="369" d="M314 425l-142 -131q5 -4 74 -66l18 -17l18 -17q7 -4 19 -16l8 -7l8 -7l-74 -77l-199 186v42l199 187z" />
<glyph unicode="=" horiz-adv-x="489" d="M421 337h-352v106h352v-106zM421 147h-352v106h352v-106z" />
<glyph unicode="&#x3e;" horiz-adv-x="370" d="M326 270l-198 -185l-73 74l142 131q-27 25 -71 68l-19 17l-17 17l-10 9l-10 9l-8 8l-6 6l72 76l198 -188v-42z" />
<glyph unicode="?" horiz-adv-x="469" d="M26 504q0 189 198 193q90 0 143 -45q59 -51 59 -152v-53q0 -63 -24 -105q-17 -30 -52 -55l-15 -11l-13 -10q-10 -8 -25 -23q-23 -27 -23 -69h-122q0 94 78 159l14 11l14 12q8 7 15 14q2 2 5 6l3 2l1 1q24 28 24 65v55q0 87 -80 87q-79 0 -79 -82h-121zM260 114 q22 -19 22 -51q0 -30 -22 -49q-19 -17 -46 -17t-48 16q-21 19 -21 50q0 32 21 51q20 16 48 16q27 0 46 -16z" />
<glyph unicode="@" horiz-adv-x="702" d="M384 396h-36q-35 0 -35 -37v-56q0 -41 36 -41q35 0 35 46v88zM281 555q-63 0 -86 -26q-19 -22 -19 -75v-246q0 -53 19 -75q23 -27 86 -27h158v-107h-158q-120 0 -174 49q-52 49 -52 154v258q0 108 51 155q52 48 175 48h141q123 0 176 -48q55 -47 55 -155v-160 q0 -83 -40 -119q-32 -29 -102 -29q-38 0 -66 18q-21 13 -31 36l-6 -6l-7 -7q-8 -7 -16 -13q-22 -13 -54 -13q-107 0 -107 109v106q0 50 38 81q33 27 86 27h125v-187q0 -35 3 -43q7 -18 26 -18q17 0 24 15q6 12 6 44v162q0 51 -20 70q-22 22 -90 22h-141z" />
<glyph unicode="A" horiz-adv-x="508" d="M501 0h-125l-35 120h-173l-35 -120h-125l187 677h121zM311 238l-57 251l-56 -251h113z" />
<glyph unicode="B" horiz-adv-x="548" d="M53 678h201q91 0 146 -51q54 -48 54 -129q0 -78 -62 -119q55 -12 89 -55q36 -46 36 -114q0 -113 -59 -162q-57 -48 -182 -48h-223v678zM173 110h105q66 0 90 25q18 20 18 73q0 52 -22 74q-24 23 -88 23h-103v-195zM174 574v-157h81q36 0 56 24q18 21 18 55q0 32 -15 52 q-20 26 -60 26h-80z" />
<glyph unicode="C" horiz-adv-x="548" d="M510 209q0 -110 -56 -161q-54 -50 -176 -50q-120 0 -173 49t-53 154v275q0 108 52 155t174 47q123 0 177 -48q55 -49 55 -162h-122q0 55 -19 77q-25 26 -91 26q-62 0 -85 -26q-20 -22 -20 -75v-263q0 -53 20 -75q23 -26 85 -26q63 0 88 27q22 22 22 76h122z" />
<glyph unicode="D" horiz-adv-x="563" d="M285 678q123 0 177 -48q55 -47 55 -155v-276q0 -105 -56 -152q-54 -47 -176 -47h-223v678h223zM285 110q63 0 88 24q22 19 22 71v264q0 54 -18 73q-24 25 -90 25h-104v-457h102z" />
<glyph unicode="E" horiz-adv-x="496" d="M451 678v-106h-268v-174h229v-109h-229v-179h281v-111h-402v679h389z" />
<glyph unicode="F" horiz-adv-x="485" d="M458 567h-277v-169h234v-110h-234v-289h-120v679h397v-111z" />
<glyph unicode="G" horiz-adv-x="555" d="M280 385h228v-176q0 -111 -56 -161q-53 -52 -176 -52q-118 0 -173 51q-53 50 -53 160v272q0 105 52 153q55 49 174 49q123 0 177 -47q55 -47 55 -155h-122q0 52 -19 71q-24 24 -91 24q-61 0 -85 -28q-19 -22 -19 -73v-266q0 -53 19 -75q23 -26 85 -26q119 0 119 103v66 h-115v110z" />
<glyph unicode="H" horiz-adv-x="576" d="M516 0h-121v279h-211v-280h-122v679h122v-288h211v288h121v-678z" />
<glyph unicode="I" horiz-adv-x="245" d="M184 -1h-122v678h122v-678z" />
<glyph unicode="J" horiz-adv-x="462" d="M410 198q0 -105 -49 -154q-49 -48 -152 -48q-202 0 -202 208h121q0 -53 17 -75q19 -26 64 -26q44 0 64 26q16 24 16 75v474h121v-480z" />
<glyph unicode="K" horiz-adv-x="554" d="M403 0l-191 272h-34v-272h-121v678h122v-286h32l178 286h142l-221 -339l241 -339h-148z" />
<glyph unicode="L" horiz-adv-x="466" d="M445 0h-383v678h122v-567h261v-111z" />
<glyph unicode="M" horiz-adv-x="633" d="M304 160l-135 273l14 -194v-239h-121v678h117l138 -300l139 300h117v-678h-122v239l15 194l-135 -273h-27z" />
<glyph unicode="N" horiz-adv-x="548" d="M488 0h-118l-199 429l10 -257v-172h-120v677h120l199 -446l-13 286v160h121v-677z" />
<glyph unicode="O" horiz-adv-x="564" d="M52 483q0 108 52 155q52 48 174 48q123 0 177 -48q55 -48 55 -155v-287q0 -104 -56 -154q-54 -48 -176 -48q-120 0 -173 48q-53 50 -53 154v287zM388 477q0 52 -19 74q-25 27 -91 27q-62 0 -85 -27q-20 -22 -20 -74v-275q0 -52 20 -74q23 -27 85 -27q63 0 88 27 q22 22 22 74v275z" />
<glyph unicode="P" horiz-adv-x="509" d="M232 678q125 0 182 -48q59 -48 59 -155v-62q0 -205 -241 -205h-46v-208h-124v678h170zM232 325q64 0 92 23q25 22 25 71v50q0 51 -22 73q-24 25 -93 25h-49v-242h47z" />
<glyph unicode="Q" horiz-adv-x="562" d="M52 481q0 109 52 156q51 49 174 49t177 -49q55 -49 55 -156v-274q0 -158 -117 -195q4 -40 20 -54q22 -20 85 -13v-97q-212 -29 -220 150q-120 0 -173 49t-53 154v280zM388 475q0 53 -19 75q-25 26 -91 26q-62 0 -85 -26q-20 -22 -20 -75v-268q0 -53 20 -75q23 -26 85 -26 q63 0 88 26q22 22 22 75v268z" />
<glyph unicode="R" horiz-adv-x="522" d="M363 0l-135 238h-45v-238h-121v678h170q125 0 182 -48q59 -48 59 -156v-35q0 -74 -29 -118q-27 -43 -88 -63l148 -258h-141zM232 350q64 0 90 24q23 21 23 71v23q0 50 -20 73q-24 25 -91 25h-52v-216h50z" />
<glyph unicode="S" horiz-adv-x="531" d="M355 501q-3 40 -26 58q-21 16 -67 16q-51 0 -72 -19q-22 -19 -22 -67q0 -55 47 -73q21 -7 53 -11l17 -3l17 -2q23 -2 37 -5q71 -11 105 -43q48 -43 48 -136q0 -118 -55 -170q-53 -53 -176 -53q-222 0 -222 191h122q2 -41 24 -60q25 -20 79 -20q56 0 81 24q25 26 25 83 q0 52 -56 71q-22 8 -54 12l-29 3l-28 4q-69 10 -107 45q-50 47 -50 142t56 145q54 48 160 48q201 0 215 -180h-122z" />
<glyph unicode="T" horiz-adv-x="415" d="M408 567h-140v-567h-120v567h-141v108h401v-108z" />
<glyph unicode="U" horiz-adv-x="560" d="M381 677h121v-476q0 -103 -60 -156q-57 -51 -167 -51q-222 0 -222 207v476h121v-470q0 -106 101 -106q106 0 106 106v470z" />
<glyph unicode="V" horiz-adv-x="507" d="M500 677l-182 -678h-127l-183 678h124l59 -207l63 -317l63 319l59 205h124z" />
<glyph unicode="W" horiz-adv-x="814" d="M315 -1h-128l-179 679h125l67 -234l48 -277l111 489h93l120 -489l40 277l66 234h125l-169 -679h-129l-99 366z" />
<glyph unicode="X" d="M152 678l45 -110l49 -145l47 142l46 113h132l-145 -336l157 -342h-131l-53 113l-53 147l-58 -155l-49 -105h-131l157 342l-145 336h132z" />
<glyph unicode="Y" horiz-adv-x="459" d="M462 678l-171 -395v-284h-120v284l-173 395h131l53 -125l49 -146l50 149l50 122h131z" />
<glyph unicode="Z" horiz-adv-x="463" d="M452 678l-260 -571h245v-107h-425l265 569h-228v109h403z" />
<glyph unicode="[" horiz-adv-x="323" d="M295 -130h-215v826h215v-118h-96v-590h96v-118z" />
<glyph unicode="\" horiz-adv-x="391" d="M358 -1h-124l-194 678h125z" />
<glyph unicode="]" horiz-adv-x="331" d="M252 -130h-215v118h95v590h-95v118h215v-826z" />
<glyph unicode="^" horiz-adv-x="567" d="M48 377v5l192 289h69l198 -289v-5h-122l-110 172l-111 -172h-116z" />
<glyph unicode="_" horiz-adv-x="461" d="M432 -3h-401v121h401v-121z" />
<glyph unicode="`" horiz-adv-x="215" d="M0 670h121l51 -120h-105z" />
<glyph unicode="a" horiz-adv-x="477" d="M312 207q-166 17 -166 -57q0 -46 71 -46q85 0 95 103zM48 341q-13 181 185 181q195 0 195 -203v-319h-99l-11 60q-49 -67 -137 -67q-67 0 -106 37q-43 38 -43 110q0 178 280 158q0 62 -15 87q-16 29 -63 29q-40 0 -55 -15q-17 -17 -16 -58h-115z" />
<glyph unicode="b" horiz-adv-x="498" d="M48 678h121v-200q37 46 113 46q82 0 126 -50q42 -49 42 -133v-139q0 -205 -202 -205q-100 0 -149 48q-51 50 -51 156v477zM169 203q0 -51 17 -73q18 -25 62 -25q81 0 81 99v122q0 86 -78 88q-82 0 -82 -87v-124z" />
<glyph unicode="c" horiz-adv-x="486" d="M333 326q0 88 -81 88q-48 0 -68 -27q-19 -24 -19 -75v-112q0 -53 17 -75q19 -26 64 -26q47 0 66 21q20 20 21 67h114q0 -103 -49 -150q-49 -46 -152 -46t-153 49q-49 50 -49 156v116q0 209 205 209q103 0 151 -45q47 -46 47 -150h-114z" />
<glyph unicode="d" horiz-adv-x="516" d="M349 0l-8 57q-34 -60 -123 -60q-170 0 -170 201v134q0 90 44 142q44 51 130 51q79 0 106 -45v198h121v-678h-100zM168 204q0 -99 78 -99q82 0 82 104v118q0 87 -78 87q-82 0 -82 -88v-122z" />
<glyph unicode="e" horiz-adv-x="496" d="M450 159q0 -161 -202 -161q-104 0 -152 49q-49 49 -49 154v118q0 202 201 202q104 0 152 -48q50 -50 50 -154v-103h-282v-14q0 -58 23 -81q18 -18 59 -18q81 0 81 56h119zM333 315q0 52 -15 75q-17 26 -66 26q-50 0 -69 -27q-15 -23 -15 -74h165z" />
<glyph unicode="f" horiz-adv-x="319" d="M298 580q-59 9 -93 -13q-33 -22 -33 -67v-27h112v-111h-112v-363h-120v503q0 93 63 144q67 55 183 40v-106z" />
<glyph unicode="g" horiz-adv-x="483" d="M44 321q0 201 169 201q84 0 118 -60l9 57h99v-532q0 -199 -196 -199q-188 0 -188 164h116q0 -61 72 -61q47 0 66 25q17 22 17 72v62q-34 -53 -110 -53q-172 0 -172 195v129zM320 311q0 103 -79 103q-76 0 -76 -99v-108q0 -103 74 -103q81 0 81 105v102z" />
<glyph unicode="h" d="M322 0v326q0 86 -76 88q-77 0 -77 -87v-327h-121v678h121v-200q37 46 109 46q165 0 165 -183v-341h-121z" />
<glyph unicode="i" horiz-adv-x="246" d="M183 -1h-121v509h121v-509zM171 674q21 -18 21 -50q0 -31 -21 -49q-20 -17 -47 -17t-47 16q-22 18 -22 50t22 50q19 17 47 17q27 0 47 -17z" />
<glyph unicode="j" horiz-adv-x="251" d="M192 28q0 -114 -43 -155q-42 -38 -148 -38v103q42 0 54 14q16 16 16 74v486h121v-484zM180 674q21 -18 21 -50q0 -31 -21 -49q-20 -17 -47 -17t-48 16q-21 18 -21 50t21 50q20 17 48 17q27 0 47 -17z" />
<glyph unicode="k" horiz-adv-x="487" d="M348 0l-145 225h-34v-225h-121v679h121v-345h33l128 185h136l-167 -233l184 -286h-135z" />
<glyph unicode="l" horiz-adv-x="269" d="M62 678h120v-486q0 -45 12 -59q11 -17 49 -17v-116q-105 0 -144 40q-37 37 -37 150v488z" />
<glyph unicode="m" horiz-adv-x="812" d="M65 519h105l8 -53q45 58 122 56q95 0 128 -66q45 67 148 67q171 0 171 -204v-319h-120v319q0 95 -78 95q-79 0 -82 -94v-320h-120v319q0 95 -78 95q-83 0 -83 -90v-324h-121v519z" />
<glyph unicode="n" horiz-adv-x="532" d="M70 519h104l6 -53q48 57 123 57q72 1 116 -42q53 -51 53 -161v-320h-120v319q0 95 -78 95q-84 0 -84 -90v-324h-120v519z" />
<glyph unicode="o" d="M44 319q0 202 202 202q103 0 152 -48q49 -50 49 -154v-125q0 -105 -49 -154t-152 -49q-104 0 -153 49t-49 154v125zM326 312q0 51 -16 75q-20 27 -64 27q-45 0 -64 -27q-17 -22 -17 -75v-112q0 -53 17 -75q19 -26 64 -26q44 0 64 26q16 24 16 75v112z" />
<glyph unicode="p" horiz-adv-x="513" d="M158 519l8 -56q34 60 123 60q170 0 170 -201v-134q0 -90 -44 -142q-45 -51 -130 -51q-79 0 -106 45v-198h-121v677h100zM339 316q0 99 -79 99q-81 0 -81 -103v-119q0 -87 78 -87q82 0 82 88v122z" />
<glyph unicode="q" horiz-adv-x="499" d="M448 -157h-121v200q-37 -46 -113 -46q-82 0 -126 50q-41 49 -41 133v139q0 205 201 205q101 0 150 -48q50 -50 50 -156v-477zM327 318q0 51 -16 73q-19 25 -63 25q-81 0 -81 -99v-123q0 -85 79 -87q81 0 81 87v124z" />
<glyph unicode="r" horiz-adv-x="338" d="M313 394q-61 8 -99 -16q-41 -24 -41 -81v-298h-120v520h111l5 -54q17 29 56 45q41 20 88 12v-128z" />
<glyph unicode="s" horiz-adv-x="458" d="M307 356q0 58 -69 58q-75 0 -75 -55q0 -37 39 -47q16 -4 41 -6l24 -2l25 -2q59 -7 96 -39q43 -38 43 -103q0 -80 -58 -124q-54 -39 -142 -39q-93 0 -145 44q-53 44 -53 119h123q4 -57 80 -57q35 0 54 17q19 15 19 36q0 29 -36 39q-15 4 -39 8l-22 3l-23 3 q-149 19 -149 144q0 85 57 128q51 41 140 41q93 0 141 -48q47 -44 47 -118h-118z" />
<glyph unicode="t" horiz-adv-x="293" d="M56 609l121 13v-101h88v-110h-88v-219q0 -50 15 -68q19 -25 75 -18v-106q-117 -12 -163 31q-48 44 -48 159v419z" />
<glyph unicode="u" horiz-adv-x="524" d="M463 1h-107l-7 53q-47 -57 -122 -57q-72 -1 -116 42q-53 52 -53 161v320h120v-319q0 -95 78 -95q84 0 84 90v324h123v-519z" />
<glyph unicode="v" horiz-adv-x="429" d="M428 519l-160 -520h-106l-159 520h125l47 -156q23 -90 41 -218q22 143 40 218l46 156h126z" />
<glyph unicode="w" horiz-adv-x="681" d="M387 519l40 -166q24 -106 39 -208q7 64 15 108q9 53 23 110l45 156h124l-150 -520h-116l-30 114l-36 183l-37 -185l-30 -112h-115l-152 520h125l46 -156q9 -36 22 -110q7 -42 16 -108v7l1 9q2 16 3 22l3 20l1 13l2 11q8 61 24 128q3 11 10 35l5 19l6 20l6 21l6 23l4 13 l3 11q2 6 4 13l2 5l1 4h90z" />
<glyph unicode="x" horiz-adv-x="463" d="M8 0l157 264l-151 255h127l47 -80l6 -10l6 -9l7 -14l6 -14q9 -19 14 -31q4 -10 5 -13q4 13 21 46q9 18 15 28l5 10l5 10l46 77h125l-151 -254l159 -265h-129l-46 77q-1 4 -5 9l-3 6l-3 6l-8 15l-8 15q-7 15 -14 31l-3 6l-2 6q-4 6 -5 9q-4 -11 -9 -22q-7 -16 -16 -33 q-26 -48 -27 -49l-45 -76h-126z" />
<glyph unicode="y" horiz-adv-x="448" d="M438 519l-154 -513h1l-28 -100q-24 -84 -77 -104q-46 -18 -125 14l18 89l11 -3l12 -2q16 -3 22 -2q23 3 31 32l20 74l-156 515h126l47 -156q23 -90 40 -218q22 143 41 218l45 156h126z" />
<glyph unicode="z" horiz-adv-x="448" d="M27 14l225 399h-202v105h381v-15l-223 -390h223v-113h-404v14z" />
<glyph unicode="{" horiz-adv-x="281" d="M78 213q0 27 -10 41q-15 21 -50 21v93q35 0 50 20q10 15 10 41v147q-7 90 52 125q55 35 137 13v-92l-16 3l-14 2q-19 1 -26 -1q-24 -8 -24 -53v-174v-14l-2 -15q-6 -29 -27 -48q22 -18 28 -48q1 -12 2 -29v-206q0 -43 24 -51q6 -4 26 -2l14 2l16 1v-91q-85 -22 -134 7 q-56 34 -56 131v177z" />
<glyph unicode="|" horiz-adv-x="242" d="M60 679h122v-844h-122v844z" />
<glyph unicode="}" horiz-adv-x="296" d="M213 36q0 -97 -55 -131q-50 -29 -134 -7v91l16 -1l14 -2q19 -2 25 2q24 8 24 51v206q2 17 3 29q6 30 28 48q-21 19 -28 48v15l-2 14v174q0 45 -24 53q-7 2 -25 1l-15 -2l-15 -3v92q81 22 136 -13q59 -35 52 -125v-147q0 -26 11 -41q14 -20 50 -20v-93q-36 0 -50 -21 q-11 -14 -11 -41v-177z" />
<glyph unicode="~" horiz-adv-x="568" d="M502 305q-44 -121 -131 -121q-34 0 -63 14l-104 52q-13 4 -25 4q-26 0 -49 -60l-83 36q18 55 55 89q39 34 81 34q31 0 58 -14h-1l103 -50q12 -7 24 -7q21 0 47 58z" />
<glyph unicode="&#xa2;" horiz-adv-x="473" d="M326 319q0 95 -81 95q-47 0 -67 -27q-17 -22 -17 -75v-112q0 -53 17 -75q18 -26 63 -26q84 0 85 95h117q0 -169 -139 -197v-69h-123v68q-141 27 -141 198v125q0 169 142 196v75h123v-75q138 -29 138 -196h-117z" />
<glyph unicode="&#xa3;" horiz-adv-x="476" d="M336 486q0 41 -20 59q-14 13 -43 13q-27 0 -44 -18q-19 -19 -19 -53v-102h154v-110h-154v-166h237v-109h-432v110h77v165h-77v110h77v99q0 88 47 137q47 50 134 50q176 0 172 -185h-109z" />
<glyph unicode="&#xa5;" horiz-adv-x="451" d="M457 678l-134 -308h58v-97h-95v-36h95v-97h-95v-141h-121v141h-95v97h95v36h-95v97h58l-135 308h131l53 -125l49 -146l49 149l51 122h131z" />
<glyph unicode="&#xa8;" horiz-adv-x="391" d="M150 682q20 -18 20 -47q0 -26 -20 -44q-19 -15 -44 -15q-24 -1 -45 14q-21 17 -21 45q0 29 21 46q18 15 45 16q23 0 44 -15zM344 682q20 -18 20 -47q0 -26 -20 -44q-18 -15 -44 -15q-24 -1 -45 14q-20 17 -20 45q0 29 20 46q19 15 45 16q24 0 44 -15z" />
<glyph unicode="&#xa9;" horiz-adv-x="740" d="M363 645q147 1 235 -93q80 -87 80 -218q0 -140 -78 -228q-85 -96 -237 -96q-151 0 -237 92q-80 85 -80 225q0 132 82 220q94 100 250 99zM189 156q62 -70 174 -70q114 0 173 70q56 64 56 177q0 105 -58 167q-61 67 -171 67q-111 0 -174 -69q-58 -64 -58 -172 q0 -105 58 -170zM502 286q-1 -81 -34 -114q-32 -33 -105 -33q-75 0 -109 33q-35 35 -35 110v96q0 139 144 139q134 0 139 -141l-84 -1q-2 37 -16 51q-11 11 -39 11q-30 0 -43 -10q-15 -13 -15 -49v-96q0 -36 15 -51q13 -13 43 -13q29 0 41 13q14 14 14 55h84z" />
<glyph unicode="&#xab;" horiz-adv-x="454" d="M143 490h120l-123 -199l123 -198h-120l-125 199zM309 490h120l-123 -199l123 -198h-120l-124 199z" />
<glyph unicode="&#xad;" horiz-adv-x="464" d="M415 248h-361v101h361v-101z" />
<glyph unicode="&#xae;" horiz-adv-x="737" d="M602 78q-90 -96 -240 -96t-240 96q-84 92 -84 231q0 140 84 230q90 97 240 97q151 0 240 -97q84 -91 84 -230t-84 -231zM189 134q64 -72 173 -72t173 72q61 68 61 176t-61 177q-64 72 -173 72t-173 -72q-60 -68 -61 -176q0 -109 61 -177zM411 133l-53 106h-30v-107h-83 v364h123q133 0 133 -121v-7q0 -92 -64 -113l72 -122h-98zM328 417v-100h40q23 0 35 9q11 12 11 42v7q0 26 -11 35q-8 5 -35 7h-40z" />
<glyph unicode="&#xb4;" horiz-adv-x="215" d="M135 550h-105l50 120h122z" />
<glyph unicode="&#xb8;" horiz-adv-x="258" d="M77 50h91l-17 -51q52 -3 73 -39q17 -30 7 -74q-19 -76 -104 -89q-86 -13 -137 45l40 62q18 -18 54 -23q37 -3 47 26q5 20 -20 33t-63 15z" />
<glyph unicode="&#xbb;" horiz-adv-x="454" d="M434 292l-124 -199h-121l123 198l-123 199h121zM268 292l-125 -199h-120l123 198l-123 199h120z" />
<glyph unicode="&#x2c6;" horiz-adv-x="312" d="M122 557h-111v9l125 113h56l124 -113v-9h-113l-39 40z" />
<glyph unicode="&#x2da;" horiz-adv-x="281" d="M216 670q33 -28 33 -77q0 -48 -33 -77q-29 -28 -75 -28q-48 0 -75 28q-32 28 -31 76q0 49 33 78q31 26 74 26q45 0 74 -26zM181 592q-1 38 -39 38t-38 -38t38 -38q39 0 39 38z" />
<glyph unicode="&#x2dc;" horiz-adv-x="362" d="M35 602q14 46 51 69q39 23 82 4l43 -21q12 -5 21 -1q13 6 20 24l74 -31q-13 -49 -44 -74q-36 -29 -84 -10l-48 23q-8 7 -21 3q-15 -5 -23 -23z" />
<glyph unicode="&#x401;" horiz-adv-x="496" d="M451 678v-106h-268v-174h229v-109h-229v-179h281v-111h-402v679h389zM199 824q19 -16 19 -45q0 -27 -19 -42q-20 -15 -43 -15q-27 -2 -44 13q-20 16 -20 44q0 27 20 44q18 14 44 16q25 0 43 -15zM386 824q20 -16 20 -45q0 -27 -20 -42q-17 -15 -43 -15q-25 -2 -43 13 q-19 16 -19 44q0 27 19 44q18 15 43 16q26 0 43 -15z" />
<glyph unicode="&#x402;" horiz-adv-x="590" d="M404 571h-140v-128q37 45 109 45q165 0 165 -183v-118q0 -115 -41 -155q-39 -39 -145 -39v103q40 0 51 14q14 14 14 74v107q0 86 -76 87q-73 0 -77 -78v-300h-116v571h-141v108h397v-108z" />
<glyph unicode="&#x403;" horiz-adv-x="422" d="M401 568h-219v-568h-120v679h339v-111zM277 726h-97l50 120h114z" />
<glyph unicode="&#x404;" horiz-adv-x="565" d="M510 208q0 -112 -55 -162t-177 -50q-120 0 -174 48q-53 49 -53 154v282q0 108 52 155q53 48 175 48q124 0 178 -49t54 -162h-121q0 54 -19 76q-25 28 -92 28q-62 0 -85 -28q-20 -22 -20 -75v-75h161v-109h-161v-84q0 -53 20 -75q23 -27 85 -27q63 0 89 27q22 22 22 78 h121z" />
<glyph unicode="&#x405;" horiz-adv-x="531" d="M355 501q-3 40 -26 58q-21 16 -67 16q-51 0 -72 -19q-22 -19 -22 -67q0 -55 47 -73q21 -7 53 -11l17 -3l17 -2q23 -2 37 -5q71 -11 105 -43q48 -43 48 -136q0 -118 -55 -170q-53 -53 -176 -53q-222 0 -222 191h122q2 -41 24 -60q25 -20 79 -20q56 0 81 24q25 26 25 83 q0 52 -56 71q-22 8 -54 12l-29 3l-28 4q-69 10 -107 45q-50 47 -50 142t56 145q54 48 160 48q201 0 215 -180h-122z" />
<glyph unicode="&#x406;" horiz-adv-x="245" d="M184 -1h-122v678h122v-678z" />
<glyph unicode="&#x407;" horiz-adv-x="245" d="M184 -1h-122v678h122v-678zM74 824q20 -18 20 -47q0 -26 -20 -44q-19 -16 -44 -16q-24 -1 -45 14q-20 18 -20 46t20 46q19 15 45 16q24 0 44 -15zM268 824q21 -18 21 -47q0 -26 -21 -44q-18 -16 -44 -16q-23 -1 -44 14q-21 18 -21 46t21 46q18 15 44 16q24 0 44 -15z" />
<glyph unicode="&#x408;" horiz-adv-x="462" d="M410 198q0 -105 -49 -154q-49 -48 -152 -48q-202 0 -202 208h121q0 -53 17 -75q19 -26 64 -26q44 0 64 26q16 24 16 75v474h121v-480z" />
<glyph unicode="&#x409;" horiz-adv-x="778" d="M348 0v568h-113l-6 -253q-5 -170 -40 -237q-48 -93 -185 -78l4 119q69 -5 90 65q8 25 9 66l1 33l1 17v15l6 364h357v-270h36q121 0 178 -50q56 -50 56 -155v-1q0 -108 -56 -155q-55 -48 -178 -48h-160zM471 296v-187h39q67 0 89 24q19 20 19 71q0 49 -22 69 q-26 23 -88 23h-37z" />
<glyph unicode="&#x40a;" horiz-adv-x="777" d="M346 0v679h124v-270h36q121 0 178 -50q56 -50 56 -155v-1q0 -108 -55 -155q-56 -48 -179 -48h-160zM469 296v-187h39q68 0 90 24q18 20 18 71q0 49 -22 69q-26 23 -88 23h-37zM356 292h-172v-292h-122v678h122v-275h172v-111z" />
<glyph unicode="&#x40b;" horiz-adv-x="590" d="M417 0v291q0 86 -76 87q-73 0 -77 -78v-300h-116v571h-141v108h397v-108h-140v-128q37 45 109 45q165 0 165 -183v-305h-121z" />
<glyph unicode="&#x40c;" horiz-adv-x="556" d="M404 0l-178 284h-47v-284h-122v679h123v-273h29q35 0 53 29q7 11 15 30l6 16l6 18q30 99 63 133q55 58 174 47l-9 -112q-63 2 -84 -21q-10 -10 -33 -80q-29 -97 -66 -130l219 -336h-149zM334 712h-102l50 120h119z" />
<glyph unicode="&#x40e;" horiz-adv-x="471" d="M469 679l-191 -573q-47 -153 -238 -92l24 102l13 -2l14 -3q19 -3 27 -2q31 3 40 33l17 59l-164 478h130l47 -155l51 -171q13 47 25 85l14 42l12 44l51 155h128zM182 847q2 -42 52 -42q49 0 49 42h93q-1 -67 -35 -96q-32 -29 -107 -29q-74 0 -107 29q-34 29 -35 96h90z " />
<glyph unicode="&#x40f;" horiz-adv-x="576" d="M64 679h121v-568h211v568h122v-679h-166v-104h-116v104h-172v679z" />
<glyph unicode="&#x410;" horiz-adv-x="508" d="M501 0h-125l-35 120h-173l-35 -120h-125l187 677h121zM311 238l-57 251l-56 -251h113z" />
<glyph unicode="&#x411;" horiz-adv-x="509" d="M422 568h-249v-146h65q120 0 176 -45q64 -51 64 -166q0 -116 -64 -166q-56 -45 -176 -45h-185v679h369v-111zM173 311v-200h66q58 0 84 20q25 22 25 80t-25 79q-26 21 -84 21h-66z" />
<glyph unicode="&#x412;" horiz-adv-x="509" d="M53 679h194q93 0 145 -41q57 -45 57 -134q0 -100 -84 -134q113 -23 113 -159q0 -116 -63 -166q-56 -45 -178 -45h-184v679zM173 111h65q62 0 84 18q26 21 26 80q0 51 -22 73q-25 23 -89 23h-64v-194zM174 570v-152h74q36 0 56 24q17 23 17 55q0 33 -14 49q-19 24 -60 24 h-73z" />
<glyph unicode="&#x413;" horiz-adv-x="422" d="M401 568h-219v-568h-120v679h339v-111z" />
<glyph unicode="&#x414;" horiz-adv-x="562" d="M52 107q33 39 48 119q11 57 11 130v323h369v-572h61v-204h-114v97h-308v-97h-115v204h48zM230 356q0 -61 -13 -128q-14 -76 -44 -121h186v464h-129v-215z" />
<glyph unicode="&#x415;" horiz-adv-x="496" d="M451 678v-106h-268v-174h229v-109h-229v-179h281v-111h-402v679h389z" />
<glyph unicode="&#x416;" horiz-adv-x="834" d="M490 405q35 0 55 31q9 15 14 30l5 17l5 16q30 99 64 133q55 58 174 47l-9 -113q-61 3 -84 -20q-12 -14 -32 -81q-32 -98 -65 -129l216 -336h-148l-176 284h-31v-284h-118v284h-31l-176 -284h-149l217 336q-34 32 -65 129q-20 68 -32 81q-23 23 -84 20l-9 113 q119 11 174 -47q33 -34 63 -133l6 -16l5 -17q5 -15 14 -30q20 -31 55 -31h11v274h120v-274h11z" />
<glyph unicode="&#x417;" horiz-adv-x="485" d="M150 207q0 -101 90 -101q46 0 65 22q21 22 21 74q0 48 -27 75t-75 27h-66v110l33 -1q26 0 33 1q96 0 96 85q0 38 -21 59q-22 22 -60 22q-82 0 -82 -87h-114q0 103 49 149q46 44 148 45q89 2 141 -47q54 -50 54 -138q0 -37 -16 -74q-20 -47 -59 -66q89 -39 89 -158 q0 -212 -209 -212q-206 0 -206 215h116z" />
<glyph unicode="&#x418;" horiz-adv-x="550" d="M62 678h120v-160l-14 -287l201 447h120v-678h-120v173l10 258l-199 -431h-118v678z" />
<glyph unicode="&#x419;" horiz-adv-x="550" d="M62 678h120v-160l-14 -287l201 447h120v-678h-120v173l10 258l-199 -431h-118v678zM229 857q1 -46 55 -46q52 0 53 46h99q-1 -72 -36 -105q-36 -31 -116 -31t-116 31q-34 31 -36 105h97z" />
<glyph unicode="&#x41a;" horiz-adv-x="556" d="M404 0l-178 284h-47v-284h-122v679h123v-273h29q35 0 53 29q7 11 15 30l6 16l6 18q30 99 63 133q55 58 174 47l-9 -112q-63 2 -84 -21q-10 -10 -33 -80q-29 -97 -66 -130l219 -336h-149z" />
<glyph unicode="&#x41b;" horiz-adv-x="577" d="M517 0h-122v568h-159l-6 -253q-5 -170 -40 -237q-48 -93 -186 -78l5 119q69 -5 90 65q7 25 9 66l1 33l1 17v15l6 364h401v-679z" />
<glyph unicode="&#x41c;" horiz-adv-x="633" d="M304 160l-135 273l14 -194v-239h-121v678h117l138 -300l139 300h117v-678h-122v239l15 194l-135 -273h-27z" />
<glyph unicode="&#x41d;" horiz-adv-x="576" d="M516 0h-121v280h-211v-280h-122v678h122v-287h211v287h121v-678z" />
<glyph unicode="&#x41e;" horiz-adv-x="564" d="M52 483q0 108 52 155q52 48 174 48q123 0 177 -48q55 -48 55 -155v-287q0 -104 -56 -154q-54 -48 -176 -48q-120 0 -173 48q-53 50 -53 154v287zM388 477q0 52 -19 74q-25 27 -91 27q-62 0 -85 -27q-20 -22 -20 -74v-275q0 -52 20 -74q23 -27 85 -27q63 0 88 27 q22 22 22 74v275z" />
<glyph unicode="&#x41f;" horiz-adv-x="576" d="M516 0h-121v568h-211v-568h-122v679h454v-679z" />
<glyph unicode="&#x420;" horiz-adv-x="509" d="M232 678q125 0 182 -48q59 -48 59 -155v-62q0 -205 -241 -205h-46v-208h-124v678h170zM232 325q64 0 92 23q25 22 25 71v50q0 51 -22 73q-24 25 -93 25h-49v-242h47z" />
<glyph unicode="&#x421;" horiz-adv-x="548" d="M510 209q0 -110 -56 -161q-54 -50 -176 -50q-120 0 -173 49t-53 154v275q0 108 52 155t174 47q123 0 177 -48q55 -49 55 -162h-122q0 55 -19 77q-25 26 -91 26q-62 0 -85 -26q-20 -22 -20 -75v-263q0 -53 20 -75q23 -26 85 -26q63 0 88 27q22 22 22 76h122z" />
<glyph unicode="&#x422;" horiz-adv-x="415" d="M408 571h-140v-571h-120v571h-141v108h401v-108z" />
<glyph unicode="&#x423;" horiz-adv-x="471" d="M469 679l-191 -573q-47 -153 -238 -92l24 102l13 -2l14 -3q19 -3 27 -2q31 3 40 33l17 59l-164 478h130l47 -155l51 -171q13 47 25 85l14 42l12 44l51 155h128z" />
<glyph unicode="&#x424;" horiz-adv-x="757" d="M439 -3h-123v87h-24q-124 0 -180 48q-60 49 -60 153v113q0 106 59 155q57 46 181 46h25v85h121v-85h25q124 0 181 -46q59 -49 59 -155v-113q0 -104 -60 -153q-59 -48 -180 -48h-24v-87zM463 194q64 0 91 25q26 23 26 72v100q0 53 -22 75q-26 26 -93 26h-27v-298h25z M317 492h-27q-66 0 -92 -26q-23 -23 -23 -75v-100q0 -49 26 -72q27 -25 91 -25h25v298z" />
<glyph unicode="&#x425;" d="M152 678l45 -110l49 -145l47 142l46 113h132l-145 -336l157 -342h-131l-53 113l-53 147l-58 -155l-49 -105h-131l157 342l-145 336h132z" />
<glyph unicode="&#x426;" horiz-adv-x="583" d="M62 679h120v-571h197v571h122v-571h60v-205h-114v97h-385v679z" />
<glyph unicode="&#x427;" horiz-adv-x="547" d="M487 679v-679h-124v224q-128 -27 -212 17q-96 52 -96 187v251h124v-244q0 -76 60 -99q50 -19 124 4v339h124z" />
<glyph unicode="&#x428;" horiz-adv-x="841" d="M781 0h-719v679h122v-571h178v571h119v-571h176v571h124v-679z" />
<glyph unicode="&#x429;" horiz-adv-x="864" d="M781 107h61v-204h-116v97h-664v679h122v-572h178v572h118v-572h177v572h124v-572z" />
<glyph unicode="&#x42a;" horiz-adv-x="581" d="M132 0v570h-134v109h258v-208h48q241 0 241 -205v-63q0 -107 -59 -155q-58 -48 -182 -48h-172zM255 357v-248h50q68 0 93 27q22 22 22 73v50q0 51 -25 73q-28 25 -91 25h-49z" />
<glyph unicode="&#x42b;" horiz-adv-x="766" d="M62 0v679h124v-208h47q240 0 240 -205v-63q0 -107 -59 -155q-56 -48 -181 -48h-171zM185 357v-248h50q68 0 92 27q22 22 22 73v50q0 50 -25 73q-28 25 -91 25h-48zM584 0v679h124v-679h-124z" />
<glyph unicode="&#x42c;" horiz-adv-x="510" d="M62 0v679h124v-208h47q240 0 240 -205v-63q0 -107 -59 -155q-56 -48 -181 -48h-171zM185 357v-248h50q68 0 92 27q22 22 22 73v50q0 50 -25 73q-28 25 -91 25h-48z" />
<glyph unicode="&#x42d;" horiz-adv-x="565" d="M173 210q0 -52 23 -77q25 -27 88 -27q62 0 86 27q19 22 19 75v81h-161v109h161v73q0 53 -19 75q-24 27 -86 27q-67 0 -90 -27q-21 -23 -21 -77h-121q0 114 54 163q54 48 178 48q123 0 175 -47q52 -48 52 -156v-276q0 -105 -53 -154t-174 -49t-177 50q-55 51 -55 162h121z " />
<glyph unicode="&#x42e;" horiz-adv-x="805" d="M291 280h-107v-281h-122v680h122v-287h107v93q0 108 52 155q53 47 176 47t177 -47q55 -48 55 -155v-289q0 -104 -56 -154q-53 -48 -176 -48q-120 0 -174 48q-54 49 -54 154v84zM629 478q0 52 -19 74q-26 28 -91 28q-61 0 -85 -28q-20 -23 -20 -74v-275q0 -53 20 -75 q23 -27 85 -27q64 0 88 27q22 22 22 75v275z" />
<glyph unicode="&#x42f;" horiz-adv-x="544" d="M40 0l149 258q-61 20 -90 63q-28 44 -28 119v35q0 108 59 157q58 47 182 47h172v-679h-121v239h-48l-133 -239h-142zM363 351v217h-52q-66 0 -92 -26q-20 -23 -20 -73v-23q0 -50 24 -71q25 -24 89 -24h51z" />
<glyph unicode="&#x430;" horiz-adv-x="477" d="M312 207q-166 17 -166 -57q0 -46 71 -46q85 0 95 103zM48 341q-13 181 185 181q195 0 195 -203v-319h-99l-11 60q-49 -67 -137 -67q-67 0 -106 37q-43 38 -43 110q0 178 280 158q0 62 -15 87q-16 29 -63 29q-40 0 -55 -15q-17 -17 -16 -58h-115z" />
<glyph unicode="&#x431;" horiz-adv-x="484" d="M44 478q0 104 53 149q45 39 158 49q60 3 83 26l69 -75q-46 -51 -143 -60q-60 -6 -77 -17q-24 -17 -24 -72v-28q36 45 112 45q81 0 124 -49q41 -46 41 -131v-117q0 -202 -200 -202q-196 0 -196 201v281zM163 200q0 -98 77 -98q81 0 81 99v100q0 85 -76 85q-82 2 -82 -83 v-103z" />
<glyph unicode="&#x432;" horiz-adv-x="459" d="M48 0v512h189q162 0 162 -132q0 -74 -64 -99q42 -9 65 -44q21 -33 21 -77q0 -94 -58 -131q-46 -29 -144 -29h-171zM168 104h53q40 0 58 10q23 12 23 48q0 35 -24 49q-21 10 -59 10h-51v-117zM168 414v-97h59q55 0 55 49q0 20 -11 32q-14 16 -45 16h-58z" />
<glyph unicode="&#x433;" horiz-adv-x="364" d="M173 0h-119v512h294v-107h-175v-405z" />
<glyph unicode="&#x434;" horiz-adv-x="527" d="M63 106q32 37 43 98q5 27 7 55q1 9 1 53v200h342v-406h60v-200h-113v94h-282v-94h-111v200h53zM338 106v299h-107v-93q0 -136 -49 -206h156z" />
<glyph unicode="&#x435;" horiz-adv-x="496" d="M450 159q0 -161 -202 -161q-104 0 -152 49q-49 49 -49 154v118q0 202 201 202q104 0 152 -48q50 -50 50 -154v-103h-282v-14q0 -58 23 -81q18 -18 59 -18q81 0 81 56h119zM333 315q0 52 -15 75q-17 26 -66 26q-50 0 -69 -27q-15 -23 -15 -74h165z" />
<glyph unicode="&#x436;" horiz-adv-x="723" d="M425 326q31 0 48 24q6 9 14 26l7 14l7 14l11 21l12 22q16 25 32 38q44 37 127 25l-7 -102q-34 6 -51 -11q-14 -12 -31 -49l-11 -22q-2 -7 -6 -13l-2 -5l-2 -4q-13 -26 -30 -37l169 -267h-133l-136 217h-25v-217h-118v217h-24l-137 -217h-132l169 267q-17 11 -30 37 q-3 4 -11 22l-11 22q-18 38 -30 49q-18 17 -52 11l-6 102q80 12 127 -25q16 -13 31 -38l12 -22l11 -21l7 -14l7 -14q5 -11 7 -15l4 -5l4 -6q16 -24 47 -24h7v185h118v-185h7z" />
<glyph unicode="&#x437;" horiz-adv-x="424" d="M155 157q0 -56 54 -56q23 0 38 15q18 18 17 45q0 56 -51 55h-55v101h57q21 0 34 15q11 11 11 34q0 55 -49 55q-52 0 -52 -49h-116q0 149 169 149q164 0 164 -150q0 -72 -58 -101q34 -11 52 -48q15 -35 14 -72q-3 -158 -175 -158q-174 0 -174 165h120z" />
<glyph unicode="&#x438;" horiz-adv-x="496" d="M330 299l-63 -116l-105 -183h-111v511h119v-298l70 130l97 168h111v-511h-118v299z" />
<glyph unicode="&#x439;" horiz-adv-x="496" d="M330 299l-63 -116l-105 -183h-111v511h119v-298l70 130l97 168h111v-511h-118v299zM201 682q1 -44 54 -44q52 0 52 44h98q-1 -70 -36 -101q-36 -31 -114 -31q-76 0 -112 31q-37 31 -37 101h95z" />
<glyph unicode="&#x43a;" horiz-adv-x="481" d="M345 0l-143 217h-34v-217h-119v511h119v-185h18q30 0 50 24q4 6 16 26l8 14l7 14l10 21l13 22q15 25 31 38q44 37 127 25l-6 -102q-34 6 -52 -11q-13 -11 -30 -49q-27 -58 -56 -81l173 -267h-132z" />
<glyph unicode="&#x43b;" horiz-adv-x="502" d="M109 311l3 200h342v-511h-120v407h-109l-1 -98q-3 -166 -37 -232q-49 -92 -182 -78l5 107q71 -6 90 68q7 28 9 69v68z" />
<glyph unicode="&#x43c;" horiz-adv-x="605" d="M282 66l-124 237l14 -173v-130h-120v511h120l132 -255l137 255h116v-511h-120v130l14 173l-123 -237h-46z" />
<glyph unicode="&#x43d;" horiz-adv-x="497" d="M52 511h119v-192h160v192h118v-511h-118v215h-160v-215h-119v511z" />
<glyph unicode="&#x43e;" d="M44 319q0 202 202 202q103 0 152 -48q49 -50 49 -154v-125q0 -105 -49 -154t-152 -49q-104 0 -153 49t-49 154v125zM326 312q0 51 -16 75q-20 27 -64 27q-45 0 -64 -27q-17 -22 -17 -75v-112q0 -53 17 -75q19 -26 64 -26q44 0 64 26q16 24 16 75v112z" />
<glyph unicode="&#x43f;" horiz-adv-x="497" d="M52 511h397v-511h-118v407h-160v-407h-119v511z" />
<glyph unicode="&#x440;" horiz-adv-x="513" d="M158 519l8 -56q34 60 123 60q170 0 170 -201v-134q0 -90 -44 -142q-45 -51 -130 -51q-79 0 -106 45v-198h-121v677h100zM339 316q0 99 -79 99q-81 0 -81 -103v-119q0 -87 78 -87q82 0 82 88v122z" />
<glyph unicode="&#x441;" horiz-adv-x="486" d="M333 326q0 88 -81 88q-48 0 -68 -27q-19 -24 -19 -75v-112q0 -53 17 -75q19 -26 64 -26q47 0 66 21q20 20 21 67h114q0 -103 -49 -150q-49 -46 -152 -46t-153 49q-49 50 -49 156v116q0 209 205 209q103 0 151 -45q47 -46 47 -150h-114z" />
<glyph unicode="&#x442;" horiz-adv-x="363" d="M238 0h-117v407h-117v104h352v-104h-118v-407z" />
<glyph unicode="&#x443;" horiz-adv-x="448" d="M438 519l-154 -513h1l-28 -100q-24 -84 -77 -104q-46 -18 -125 14l18 89l11 -3l12 -2q16 -3 22 -2q23 3 31 32l20 74l-156 515h126l47 -156q23 -90 40 -218q22 143 41 218l45 156h126z" />
<glyph unicode="&#x444;" horiz-adv-x="718" d="M417 -154h-116v194q-11 -22 -41 -34q-26 -11 -54 -11q-162 0 -162 192v140q0 190 162 190q30 0 54 -11q30 -12 41 -33v195h116v-195q12 21 41 33q26 11 55 11q161 0 161 -190v-140q0 -192 -161 -192q-29 0 -55 11q-29 12 -41 34v-194zM558 322q0 85 -73 85q-68 0 -68 -84 v-132q0 -85 68 -85q73 0 73 85v131zM160 191q0 -85 73 -85q68 0 68 85v132q0 84 -68 84q-73 0 -73 -85v-131z" />
<glyph unicode="&#x445;" horiz-adv-x="463" d="M8 0l157 264l-151 255h127l47 -80l6 -10l6 -9l7 -14l6 -14q9 -19 14 -31q4 -10 5 -13q4 13 21 46q9 18 15 28l5 10l5 10l46 77h125l-151 -254l159 -265h-129l-46 77q-1 4 -5 9l-3 6l-3 6l-8 15l-8 15q-7 15 -14 31l-3 6l-2 6q-4 6 -5 9q-4 -11 -9 -22q-7 -16 -16 -33 q-26 -48 -27 -49l-45 -76h-126z" />
<glyph unicode="&#x446;" horiz-adv-x="523" d="M442 511v-407h60v-200h-112v96h-338v511h118v-407h153v407h119z" />
<glyph unicode="&#x447;" horiz-adv-x="475" d="M158 511v-165q0 -85 73 -86q77 0 77 85v166h119v-511h-119v196q-37 -45 -108 -45q-161 0 -161 181v179h119z" />
<glyph unicode="&#x448;" horiz-adv-x="700" d="M652 0h-600v511h119v-407h123v407h116v-407h123v407h119v-511z" />
<glyph unicode="&#x449;" horiz-adv-x="733" d="M652 104h60v-200h-113v96h-547v511h119v-407h123v407h117v-407h122v407h119v-407z" />
<glyph unicode="&#x44a;" horiz-adv-x="548" d="M511 174q1 -3 -1 -20q-3 -33 -16 -63q-45 -91 -180 -91h-200v407h-113v104h232v-143h82q97 0 146 -44q48 -45 50 -141v-9zM233 103h82q77 0 77 80q0 82 -77 82h-82v-162z" />
<glyph unicode="&#x44b;" horiz-adv-x="705" d="M451 165l-1 -11q-4 -36 -18 -63q-46 -91 -180 -91h-200v511h118v-143h82q98 0 148 -44q48 -45 51 -141v-18zM170 103h82q79 0 79 80q0 82 -79 82h-82v-162zM539 0v511h118v-511h-118z" />
<glyph unicode="&#x44c;" horiz-adv-x="482" d="M451 165v-11q-4 -36 -18 -63q-46 -91 -180 -91h-200v511h118v-143h82q98 0 147 -44q49 -45 51 -141v-18zM171 103h82q79 0 79 80q0 82 -79 82h-82v-162z" />
<glyph unicode="&#x44d;" horiz-adv-x="485" d="M321 305q0 52 -17 74q-19 28 -67 28q-80 0 -80 -87h-113q0 103 48 148q46 45 147 45q203 0 203 -205v-115q0 -104 -50 -153q-48 -49 -150 -49t-149 45q-49 47 -49 148h113q1 -47 20 -66q20 -21 65 -21q48 0 66 30q13 23 13 74h-112v104h112z" />
<glyph unicode="&#x44e;" horiz-adv-x="678" d="M55 511h118v-192h75q0 198 196 198q194 0 194 -199v-124q0 -199 -194 -199q-196 0 -196 199v21h-75v-215h-118v511zM370 199q0 -99 74 -99q75 0 75 99v113q0 98 -75 98q-42 0 -59 -26q-15 -23 -15 -72v-113z" />
<glyph unicode="&#x44f;" horiz-adv-x="477" d="M282 148q-3 0 -13 1h-9l-13 1l-85 -150h-140l106 181q-82 45 -82 148q0 102 68 146q57 36 168 36h147v-511h-117v148h-30zM312 400h-30q-58 0 -78 -8q-33 -14 -33 -63q0 -46 39 -61q13 -7 36 -9l19 -1h47v142z" />
<glyph unicode="&#x451;" horiz-adv-x="496" d="M450 159q0 -161 -202 -161q-104 0 -152 49q-49 49 -49 154v118q0 202 201 202q104 0 152 -48q50 -50 50 -154v-103h-282v-14q0 -58 23 -81q18 -18 59 -18q81 0 81 56h119zM333 315q0 52 -15 75q-17 26 -66 26q-50 0 -69 -27q-15 -23 -15 -74h165zM202 668q19 -16 19 -44 q0 -26 -19 -42q-18 -15 -44 -15q-25 -2 -43 13q-19 16 -19 44q0 27 19 43q18 15 43 15q27 0 44 -14zM388 668q19 -16 19 -44q0 -26 -19 -42q-18 -15 -42 -15q-26 -2 -43 13q-20 16 -20 44q0 27 20 43q17 15 43 15q25 0 42 -14z" />
<glyph unicode="&#x452;" d="M-5 631h53v49h121v-49h90v-80h-90v-85q37 45 109 45q165 0 165 -183v-300q0 -114 -43 -155q-42 -38 -148 -38v103q42 0 53 14q17 16 17 74v288q0 86 -76 87q-77 0 -77 -86v-315h-121v551h-53v80z" />
<glyph unicode="&#x453;" horiz-adv-x="365" d="M239 564h-97l50 120h114zM173 0h-119v512h294v-107h-175v-405z" />
<glyph unicode="&#x454;" horiz-adv-x="485" d="M277 305v-104h-112q0 -51 13 -74q18 -30 66 -30q46 0 65 21q19 19 20 66h113q0 -102 -49 -148q-47 -45 -149 -45t-151 49t-49 153v115q0 205 202 205q102 0 148 -45q48 -45 48 -148h-113q0 87 -80 87q-48 0 -68 -28q-16 -22 -16 -74h112z" />
<glyph unicode="&#x455;" horiz-adv-x="458" d="M307 356q0 58 -69 58q-75 0 -75 -55q0 -37 39 -47q16 -4 41 -6l24 -2l25 -2q59 -7 96 -39q43 -38 43 -103q0 -80 -58 -124q-54 -39 -142 -39q-93 0 -145 44q-53 44 -53 119h123q4 -57 80 -57q35 0 54 17q19 15 19 36q0 29 -36 39q-15 4 -39 8l-22 3l-23 3 q-149 19 -149 144q0 85 57 128q51 41 140 41q93 0 141 -48q47 -44 47 -118h-118z" />
<glyph unicode="&#x456;" horiz-adv-x="246" d="M183 -1h-121v509h121v-509zM171 674q21 -18 21 -50q0 -31 -21 -49q-20 -17 -47 -17t-47 16q-22 18 -22 50t22 50q19 17 47 17q27 0 47 -17z" />
<glyph unicode="&#x457;" horiz-adv-x="228" d="M72 675q20 -18 20 -48q0 -29 -20 -46q-18 -16 -44 -16q-24 -1 -45 14q-20 18 -20 48q0 29 20 46q17 17 45 17q24 0 44 -15zM244 675q20 -18 20 -48q0 -29 -20 -46q-19 -16 -44 -16q-24 -1 -45 14q-20 18 -20 48q0 29 20 46q17 17 45 17q24 0 44 -15zM174 -1h-120v509h120 v-509z" />
<glyph unicode="&#x458;" horiz-adv-x="251" d="M192 28q0 -114 -43 -155q-42 -38 -148 -38v103q42 0 54 14q16 16 16 74v486h121v-484zM180 674q21 -18 21 -50q0 -31 -21 -49q-20 -17 -47 -17t-48 16q-21 18 -21 50t21 50q20 17 48 17q27 0 47 -17z" />
<glyph unicode="&#x459;" horiz-adv-x="704" d="M430 334h45q104 0 150 -37q49 -39 49 -131v-16q-2 -16 -3 -22q-5 -29 -20 -57q-46 -71 -176 -71h-163v407h-87l-1 -98q-3 -166 -37 -232q-49 -92 -182 -78l5 107q71 -6 90 68q7 28 9 69v68l3 200h318v-177zM430 103h45q42 0 63 15q17 15 17 48q0 65 -80 65h-45v-128z" />
<glyph unicode="&#x45a;" horiz-adv-x="695" d="M664 150q-1 -16 -2 -22q-6 -29 -20 -57q-46 -71 -176 -71h-163v228h-132v-228h-119v511h119v-179h132v179h118v-177h45q103 0 149 -37q49 -39 49 -131v-16zM421 103h45q42 0 62 15q18 15 18 48q0 65 -80 65h-45v-128z" />
<glyph unicode="&#x45b;" d="M-5 631h53v49h121v-49h90v-80h-90v-85q37 45 109 45q165 0 165 -183v-328h-121v314q0 86 -76 87q-77 0 -77 -86v-315h-121v551h-53v80z" />
<glyph unicode="&#x45c;" horiz-adv-x="481" d="M345 0l-143 217h-34v-217h-119v511h119v-185h18q30 0 50 24q4 6 16 26l8 14l7 14l10 21l13 22q15 25 31 38q44 37 127 25l-6 -102q-34 6 -52 -11q-13 -11 -30 -49q-27 -58 -56 -81l173 -267h-132zM292 565h-102l50 120h119z" />
<glyph unicode="&#x45e;" horiz-adv-x="448" d="M438 514l-154 -513h1l-28 -100q-24 -84 -77 -104q-46 -18 -125 14l18 89l11 -3l12 -3q16 -2 22 -1q23 2 31 32l20 73l-156 516h126l47 -156q23 -90 40 -218q22 142 41 218l45 156h126zM176 692q2 -42 52 -42q49 0 49 42h93q-1 -67 -35 -96q-32 -29 -107 -29 q-74 0 -107 29q-34 29 -35 96h90z" />
<glyph unicode="&#x45f;" horiz-adv-x="497" d="M198 0h-147v511h118v-407h160v407h119v-511h-141v-92h-109v92z" />
<glyph unicode="&#x472;" horiz-adv-x="564" d="M173 286v-84q0 -52 20 -74q23 -27 85 -27q63 0 88 27q22 22 22 74v84h-215zM388 392v85q0 52 -19 74q-25 27 -91 27q-62 0 -85 -27q-20 -22 -20 -74v-85h215zM52 483q0 108 52 155q52 48 174 48q123 0 177 -48q55 -48 55 -155v-287q0 -104 -56 -154q-54 -48 -176 -48 q-120 0 -173 48q-53 50 -53 154v287z" />
<glyph unicode="&#x473;" d="M165 206v-6q0 -53 17 -75q19 -26 64 -26q44 0 64 26q16 24 16 75v6h-161zM326 296v16q0 51 -16 75q-20 27 -64 27q-45 0 -64 -27q-17 -22 -17 -75v-16h161zM44 319q0 202 202 202q103 0 152 -48q49 -50 49 -154v-125q0 -105 -49 -154t-152 -49q-104 0 -153 49t-49 154 v125z" />
<glyph unicode="&#x490;" horiz-adv-x="422" d="M401 568h-219v-568h-120v679h230v98h109v-209z" />
<glyph unicode="&#x491;" horiz-adv-x="364" d="M54 0v511h187v76h107v-183h-175v-404h-119z" />
<glyph unicode="&#x4a2;" horiz-adv-x="576" d="M454 0h-94v280h-211v-280h-123v678h123v-287h211v287h120v-594h59v-173h-85v89z" />
<glyph unicode="&#x4a3;" horiz-adv-x="531" d="M412 -3h-78v215h-161v-215h-118v512h118v-193h161v193h117v-437h46v-156h-85v81z" />
<glyph unicode="&#x4ae;" horiz-adv-x="459" d="M462 678l-171 -395v-284h-120v284l-173 395h131l53 -125l49 -146l50 149l50 122h131z" />
<glyph unicode="&#x4af;" horiz-adv-x="459" d="M449 508l-163 -377v-271h-115v271l-165 377h125l50 -120l48 -138l46 142l49 116h125z" />
<glyph unicode="&#x4e8;" horiz-adv-x="564" d="M173 286v-84q0 -52 20 -74q23 -27 85 -27q63 0 88 27q22 22 22 74v84h-215zM388 392v85q0 52 -19 74q-25 27 -91 27q-62 0 -85 -27q-20 -22 -20 -74v-85h215zM52 483q0 108 52 155q52 48 174 48q123 0 177 -48q55 -48 55 -155v-287q0 -104 -56 -154q-54 -48 -176 -48 q-120 0 -173 48q-53 50 -53 154v287z" />
<glyph unicode="&#x4e9;" d="M165 206v-6q0 -53 17 -75q19 -26 64 -26q44 0 64 26q16 24 16 75v6h-161zM326 296v16q0 51 -16 75q-20 27 -64 27q-45 0 -64 -27q-17 -22 -17 -75v-16h161zM44 319q0 202 202 202q103 0 152 -48q49 -50 49 -154v-125q0 -105 -49 -154t-152 -49q-104 0 -153 49t-49 154 v125z" />
<glyph unicode="&#x2000;" horiz-adv-x="428" />
<glyph unicode="&#x2001;" horiz-adv-x="857" />
<glyph unicode="&#x2002;" horiz-adv-x="428" />
<glyph unicode="&#x2003;" horiz-adv-x="857" />
<glyph unicode="&#x2004;" horiz-adv-x="285" />
<glyph unicode="&#x2005;" horiz-adv-x="214" />
<glyph unicode="&#x2006;" horiz-adv-x="142" />
<glyph unicode="&#x2007;" horiz-adv-x="142" />
<glyph unicode="&#x2008;" horiz-adv-x="107" />
<glyph unicode="&#x2009;" horiz-adv-x="171" />
<glyph unicode="&#x200a;" horiz-adv-x="47" />
<glyph unicode="&#x2010;" horiz-adv-x="464" d="M415 248h-361v101h361v-101z" />
<glyph unicode="&#x2011;" horiz-adv-x="464" d="M415 248h-361v101h361v-101z" />
<glyph unicode="&#x2012;" horiz-adv-x="464" d="M415 248h-361v101h361v-101z" />
<glyph unicode="&#x2013;" horiz-adv-x="539" d="M472 248h-404v101h404v-101z" />
<glyph unicode="&#x2014;" horiz-adv-x="626" d="M559 248h-491v101h491v-101z" />
<glyph unicode="&#x2018;" horiz-adv-x="257" d="M212 679l-40 -168h-120l56 168h104z" />
<glyph unicode="&#x2019;" horiz-adv-x="252" d="M94 678h120l-56 -168h-104z" />
<glyph unicode="&#x201a;" horiz-adv-x="172" d="M-2 -84q33 25 39 58q2 21 2 33l-1 20v22h102q11 -148 -106 -193z" />
<glyph unicode="&#x201c;" horiz-adv-x="388" d="M304 511h-112l53 167h97zM152 511h-112l53 167h97z" />
<glyph unicode="&#x201d;" horiz-adv-x="396" d="M93 678h113l-53 -167h-98zM246 678h112l-54 -167h-96z" />
<glyph unicode="&#x201e;" horiz-adv-x="310" d="M-2 -84q33 25 39 58q2 21 2 33l-1 20v22h102q11 -148 -106 -193zM155 -84q32 25 39 58q1 21 1 33l-1 20v22h103q11 -148 -106 -193z" />
<glyph unicode="&#x2022;" horiz-adv-x="345" d="M106 359q29 26 67 26q40 0 65 -26q27 -25 27 -67q0 -40 -27 -66q-24 -24 -65 -24q-38 0 -67 25q-26 26 -26 66q0 41 26 66z" />
<glyph unicode="&#x2026;" horiz-adv-x="635" d="M143 114q22 -19 22 -51q0 -30 -22 -49q-19 -17 -46 -17t-48 16q-21 19 -21 50q0 32 21 51q20 16 48 16q27 0 46 -16zM356 114q21 -19 21 -51q0 -30 -21 -49q-20 -17 -47 -17t-48 16q-21 19 -21 50q0 32 21 51q20 16 48 16q27 0 47 -16zM566 114q21 -19 21 -51 q0 -30 -21 -49q-20 -17 -47 -17t-47 16q-21 19 -21 50q0 32 21 51q19 16 47 16q27 0 47 -16z" />
<glyph unicode="&#x202f;" horiz-adv-x="171" />
<glyph unicode="&#x2039;" horiz-adv-x="332" d="M167 490h121l-123 -199l123 -198h-121l-124 199z" />
<glyph unicode="&#x203a;" horiz-adv-x="334" d="M291 292l-124 -199h-120l123 198l-123 199h120z" />
<glyph unicode="&#x205f;" horiz-adv-x="214" />
<glyph unicode="&#x20ac;" horiz-adv-x="464" d="M448 30q-54 -33 -113 -33h-53q-84 0 -141 47q-59 48 -59 131v69h-58v69h58v45h-58v70h58v76q0 74 62 126q60 49 138 49h53q62 0 109 -28l-55 -96q-29 14 -107 14q-80 0 -80 -80v-61h176v-70h-176v-45h176v-69h-176v-49q0 -35 23 -60q24 -27 57 -27h53q35 0 61 18z" />
<glyph unicode="&#x2122;" horiz-adv-x="467" d="M188 621h-52v-225h-61v225h-53v59h166v-59zM212 681h63l50 -94l44 94h67v-286h-61v98l1 52l-41 -101h-21l-42 100q1 -3 1 -26v-123h-61v286z" />
<glyph unicode="&#x25fc;" horiz-adv-x="519" d="M0 519h519v-519h-519v519z" />
</font>
</defs>
</svg>
